<svg width="271" height="42" viewBox="0 0 271 42" fill="none" xmlns="http://www.w3.org/2000/svg">
<path d="M0.5 0.5H270.5V41.5H0.5V0.5Z" fill="#FF9619" stroke="#FF9619"/>
<path d="M260.225 20.3536C260.42 20.1583 260.42 19.8417 260.225 19.6464L257.043 16.4645C256.848 16.2692 256.531 16.2692 256.336 16.4645C256.141 16.6597 256.141 16.9763 256.336 17.1716L259.164 20L256.336 22.8284C256.141 23.0237 256.141 23.3403 256.336 23.5355C256.531 23.7308 256.848 23.7308 257.043 23.5355L260.225 20.3536ZM245.418 20.5L259.871 20.5V19.5L245.418 19.5V20.5Z" fill="white"/>
<path d="M12.2188 26V16.7197H19.3472V26H17.8364V18.0146H13.7422V26H12.2188ZM27.0596 26H21.8037V16.7197H27.0596V18.002H23.3271V20.522H26.8247V21.7979H23.3271V24.7114H27.0596V26ZM31.7632 16.7197C32.9608 16.7197 33.8346 16.9652 34.3848 17.4561C34.9349 17.9469 35.21 18.6346 35.21 19.519C35.21 19.9211 35.1465 20.304 35.0195 20.668C34.8968 21.0277 34.6937 21.3472 34.4102 21.6265C34.1266 21.9015 33.7521 22.1195 33.2866 22.2803C32.8254 22.4411 32.2562 22.5215 31.5791 22.5215H30.5889V26H29.0654V16.7197H31.7632ZM31.6616 17.9829H30.5889V21.252H31.4204C31.8986 21.252 32.3049 21.1969 32.6392 21.0869C32.9735 20.9727 33.2274 20.7928 33.4009 20.5474C33.5744 20.3019 33.6611 19.9782 33.6611 19.5762C33.6611 19.0387 33.4982 18.6388 33.1724 18.3765C32.8507 18.1141 32.3472 17.9829 31.6616 17.9829ZM41.0181 17.8813C40.5737 17.8813 40.1759 17.9618 39.8247 18.1226C39.4777 18.2834 39.1836 18.5161 38.9424 18.8208C38.7012 19.1213 38.5171 19.4873 38.3901 19.9189C38.2632 20.3464 38.1997 20.8288 38.1997 21.3662C38.1997 22.0856 38.3013 22.7056 38.5044 23.2261C38.7075 23.7424 39.0164 24.1401 39.4312 24.4194C39.8459 24.6945 40.3706 24.832 41.0054 24.832C41.3989 24.832 41.7819 24.7939 42.1543 24.7178C42.5267 24.6416 42.9118 24.5379 43.3096 24.4067V25.7017C42.9329 25.8498 42.5521 25.9577 42.167 26.0254C41.7819 26.0931 41.3376 26.127 40.834 26.127C39.8861 26.127 39.099 25.9302 38.4727 25.5366C37.8506 25.1431 37.3851 24.5887 37.0762 23.8735C36.7715 23.1584 36.6191 22.3205 36.6191 21.3599C36.6191 20.6574 36.7165 20.0142 36.9111 19.4302C37.1058 18.8462 37.3893 18.3426 37.7617 17.9194C38.1341 17.492 38.5933 17.1641 39.1392 16.9355C39.6893 16.7028 40.3177 16.5864 41.0244 16.5864C41.4899 16.5864 41.9469 16.6393 42.3955 16.7451C42.8483 16.8467 43.2673 16.9927 43.6523 17.1831L43.1191 18.4399C42.7975 18.2876 42.4611 18.1564 42.1099 18.0464C41.7586 17.9364 41.3947 17.8813 41.0181 17.8813ZM53.542 21.3472C53.542 22.0623 53.451 22.714 53.269 23.3022C53.0913 23.8862 52.8226 24.3898 52.4629 24.813C52.1032 25.2319 51.6525 25.5557 51.1108 25.7842C50.5692 26.0127 49.9344 26.127 49.2065 26.127C48.466 26.127 47.8228 26.0127 47.2769 25.7842C46.7352 25.5557 46.2845 25.2298 45.9248 24.8066C45.5693 24.3835 45.3027 23.8778 45.125 23.2896C44.9473 22.7013 44.8584 22.0496 44.8584 21.3345C44.8584 20.3781 45.015 19.5444 45.3281 18.8335C45.6455 18.1183 46.1258 17.564 46.769 17.1704C47.4165 16.7726 48.2332 16.5737 49.2192 16.5737C50.1841 16.5737 50.986 16.7705 51.625 17.1641C52.264 17.5576 52.7422 18.112 53.0596 18.8271C53.3812 19.5381 53.542 20.3781 53.542 21.3472ZM46.458 21.3472C46.458 22.0623 46.5553 22.6823 46.75 23.207C46.9447 23.7275 47.243 24.1296 47.645 24.4131C48.0513 24.6924 48.5718 24.832 49.2065 24.832C49.8455 24.832 50.366 24.6924 50.7681 24.4131C51.1701 24.1296 51.4663 23.7275 51.6567 23.207C51.8472 22.6823 51.9424 22.0623 51.9424 21.3472C51.9424 20.2596 51.7244 19.409 51.2886 18.7954C50.8569 18.1776 50.1672 17.8687 49.2192 17.8687C48.5845 17.8687 48.0618 18.0083 47.6514 18.2876C47.2451 18.5669 46.9447 18.9668 46.75 19.4873C46.5553 20.0036 46.458 20.6235 46.458 21.3472ZM62.854 26H61.3369V21.8105H57.0586V26H55.5352V16.7197H57.0586V20.5156H61.3369V16.7197H62.854V26ZM71.0615 26L70.1538 23.4229H66.6055L65.6978 26H64.0918L67.5449 16.6816H69.2334L72.6802 26H71.0615ZM69.7603 22.1152L68.8779 19.5762C68.8441 19.4661 68.7954 19.3117 68.7319 19.1128C68.6685 18.9097 68.605 18.7044 68.5415 18.4971C68.478 18.2855 68.4251 18.1077 68.3828 17.9639C68.3405 18.1374 68.2876 18.332 68.2241 18.5479C68.1649 18.7594 68.1056 18.9583 68.0464 19.1445C67.9914 19.3307 67.9491 19.4746 67.9194 19.5762L67.0308 22.1152H69.7603ZM80.8813 26H79.3579V18.0146H76.7173C76.6623 18.4505 76.603 18.916 76.5396 19.4111C76.4761 19.902 76.4105 20.395 76.3428 20.8901C76.2751 21.3853 76.2052 21.855 76.1333 22.2993C76.0656 22.7437 75.9958 23.1351 75.9238 23.4736C75.8138 24.0407 75.6699 24.5231 75.4922 24.9209C75.3187 25.3145 75.0838 25.6149 74.7876 25.8223C74.4914 26.0296 74.1042 26.1333 73.626 26.1333C73.4652 26.1333 73.3086 26.1185 73.1562 26.0889C73.0039 26.0635 72.8664 26.0296 72.7437 25.9873V24.7305C72.8452 24.7686 72.9531 24.8024 73.0674 24.832C73.1859 24.8574 73.3107 24.8701 73.4419 24.8701C73.6619 24.8701 73.8376 24.7897 73.9688 24.6289C74.1042 24.4639 74.2163 24.2311 74.3052 23.9307C74.394 23.626 74.4787 23.2663 74.5591 22.8516C74.6056 22.6019 74.6628 22.2718 74.7305 21.8613C74.7982 21.4466 74.8722 20.9684 74.9526 20.4268C75.033 19.8851 75.1156 19.3011 75.2002 18.6748C75.2891 18.0443 75.3737 17.3926 75.4541 16.7197H80.8813V26ZM83.3252 26V16.7197H84.8486V20.4712H86.1182C86.973 20.4712 87.667 20.5897 88.2002 20.8267C88.7334 21.0594 89.1227 21.381 89.3682 21.7915C89.6178 22.202 89.7427 22.6696 89.7427 23.1943C89.7427 24.0661 89.4528 24.7516 88.873 25.251C88.2975 25.7503 87.3983 26 86.1753 26H83.3252ZM84.8486 24.7305H86.0801C86.7614 24.7305 87.284 24.6099 87.6479 24.3687C88.0119 24.1232 88.1938 23.7318 88.1938 23.1943C88.1938 22.8177 88.105 22.5257 87.9272 22.3184C87.7495 22.1068 87.4914 21.9587 87.1528 21.874C86.8143 21.7894 86.4017 21.7471 85.915 21.7471H84.8486V24.7305ZM98.9214 26H97.4043V21.8105H93.126V26H91.6025V16.7197H93.126V20.5156H97.4043V16.7197H98.9214V26ZM107.129 26L106.221 23.4229H102.673L101.765 26H100.159L103.612 16.6816H105.301L108.748 26H107.129ZM105.828 22.1152L104.945 19.5762C104.911 19.4661 104.863 19.3117 104.799 19.1128C104.736 18.9097 104.672 18.7044 104.609 18.4971C104.545 18.2855 104.493 18.1077 104.45 17.9639C104.408 18.1374 104.355 18.332 104.292 18.5479C104.232 18.7594 104.173 18.9583 104.114 19.1445C104.059 19.3307 104.016 19.4746 103.987 19.5762L103.098 22.1152H105.828ZM112.886 22.2803L110.595 26H108.868L111.49 21.9185C111.194 21.8127 110.908 21.6603 110.633 21.4614C110.362 21.2625 110.14 20.9917 109.966 20.6489C109.797 20.3019 109.712 19.8682 109.712 19.3477C109.712 18.4928 110.009 17.8411 110.601 17.3926C111.198 16.944 112.059 16.7197 113.185 16.7197H115.971V26H114.448V22.2803H112.886ZM114.448 17.9829H113.248C112.821 17.9829 112.459 18.0337 112.163 18.1353C111.866 18.2326 111.642 18.3892 111.49 18.605C111.337 18.8166 111.261 19.0959 111.261 19.4429C111.261 19.9422 111.426 20.3294 111.756 20.6045C112.086 20.8796 112.59 21.0171 113.267 21.0171H114.448V17.9829ZM128.901 26H127.13L123.315 21.29V26H121.792V16.7197H123.315V21.2139L127.061 16.7197H128.724L124.979 21.2012L128.901 26ZM138.372 21.3472C138.372 22.0623 138.281 22.714 138.099 23.3022C137.921 23.8862 137.653 24.3898 137.293 24.813C136.933 25.2319 136.483 25.5557 135.941 25.7842C135.399 26.0127 134.764 26.127 134.037 26.127C133.296 26.127 132.653 26.0127 132.107 25.7842C131.565 25.5557 131.115 25.2298 130.755 24.8066C130.399 24.3835 130.133 23.8778 129.955 23.2896C129.777 22.7013 129.688 22.0496 129.688 21.3345C129.688 20.3781 129.845 19.5444 130.158 18.8335C130.476 18.1183 130.956 17.564 131.599 17.1704C132.247 16.7726 133.063 16.5737 134.049 16.5737C135.014 16.5737 135.816 16.7705 136.455 17.1641C137.094 17.5576 137.572 18.112 137.89 18.8271C138.211 19.5381 138.372 20.3781 138.372 21.3472ZM131.288 21.3472C131.288 22.0623 131.385 22.6823 131.58 23.207C131.775 23.7275 132.073 24.1296 132.475 24.4131C132.881 24.6924 133.402 24.832 134.037 24.832C134.676 24.832 135.196 24.6924 135.598 24.4131C136 24.1296 136.296 23.7275 136.487 23.207C136.677 22.6823 136.772 22.0623 136.772 21.3472C136.772 20.2596 136.555 19.409 136.119 18.7954C135.687 18.1776 134.997 17.8687 134.049 17.8687C133.415 17.8687 132.892 18.0083 132.481 18.2876C132.075 18.5669 131.775 18.9668 131.58 19.4873C131.385 20.0036 131.288 20.6235 131.288 21.3472ZM147.684 26H146.167V21.8105H141.889V26H140.365V16.7197H141.889V20.5156H146.167V16.7197H147.684V26ZM154.095 17.8813C153.651 17.8813 153.253 17.9618 152.902 18.1226C152.555 18.2834 152.261 18.5161 152.02 18.8208C151.778 19.1213 151.594 19.4873 151.467 19.9189C151.34 20.3464 151.277 20.8288 151.277 21.3662C151.277 22.0856 151.378 22.7056 151.582 23.2261C151.785 23.7424 152.094 24.1401 152.508 24.4194C152.923 24.6945 153.448 24.832 154.083 24.832C154.476 24.832 154.859 24.7939 155.231 24.7178C155.604 24.6416 155.989 24.5379 156.387 24.4067V25.7017C156.01 25.8498 155.629 25.9577 155.244 26.0254C154.859 26.0931 154.415 26.127 153.911 26.127C152.963 26.127 152.176 25.9302 151.55 25.5366C150.928 25.1431 150.462 24.5887 150.153 23.8735C149.849 23.1584 149.696 22.3205 149.696 21.3599C149.696 20.6574 149.794 20.0142 149.988 19.4302C150.183 18.8462 150.466 18.3426 150.839 17.9194C151.211 17.492 151.67 17.1641 152.216 16.9355C152.766 16.7028 153.395 16.5864 154.102 16.5864C154.567 16.5864 155.024 16.6393 155.473 16.7451C155.925 16.8467 156.344 16.9927 156.729 17.1831L156.196 18.4399C155.875 18.2876 155.538 18.1564 155.187 18.0464C154.836 17.9364 154.472 17.8813 154.095 17.8813ZM165.489 16.7197L162.538 23.3657C162.279 23.9582 162.009 24.4596 161.725 24.8701C161.446 25.2806 161.101 25.5938 160.69 25.8096C160.28 26.0212 159.749 26.127 159.097 26.127C158.86 26.127 158.623 26.11 158.386 26.0762C158.149 26.0423 157.931 25.9958 157.732 25.9365V24.5527C157.923 24.6331 158.128 24.6945 158.348 24.7368C158.572 24.7749 158.795 24.7939 159.015 24.7939C159.324 24.7939 159.58 24.7453 159.783 24.6479C159.99 24.5506 160.164 24.4067 160.303 24.2163C160.447 24.0216 160.576 23.7847 160.69 23.5054L157.294 16.7197H158.926L161.116 21.3218C161.15 21.3937 161.192 21.4868 161.243 21.6011C161.293 21.7111 161.342 21.8254 161.389 21.9438C161.439 22.0581 161.482 22.1639 161.516 22.2612H161.573C161.602 22.1766 161.638 22.0771 161.681 21.9629C161.727 21.8444 161.774 21.7238 161.82 21.6011C161.871 21.4784 161.916 21.3704 161.954 21.2773L163.896 16.7197H165.489ZM173.684 26H172.161V18.0146H169.52C169.465 18.4505 169.406 18.916 169.342 19.4111C169.279 19.902 169.213 20.395 169.146 20.8901C169.078 21.3853 169.008 21.855 168.936 22.2993C168.868 22.7437 168.799 23.1351 168.727 23.4736C168.617 24.0407 168.473 24.5231 168.295 24.9209C168.121 25.3145 167.887 25.6149 167.59 25.8223C167.294 26.0296 166.907 26.1333 166.429 26.1333C166.268 26.1333 166.111 26.1185 165.959 26.0889C165.807 26.0635 165.669 26.0296 165.546 25.9873V24.7305C165.648 24.7686 165.756 24.8024 165.87 24.832C165.989 24.8574 166.113 24.8701 166.245 24.8701C166.465 24.8701 166.64 24.7897 166.771 24.6289C166.907 24.4639 167.019 24.2311 167.108 23.9307C167.197 23.626 167.281 23.2663 167.362 22.8516C167.408 22.6019 167.465 22.2718 167.533 21.8613C167.601 21.4466 167.675 20.9684 167.755 20.4268C167.836 19.8851 167.918 19.3011 168.003 18.6748C168.092 18.0443 168.176 17.3926 168.257 16.7197H173.684V26ZM176.128 26V16.7197H177.651V20.4712H178.921C179.776 20.4712 180.47 20.5897 181.003 20.8267C181.536 21.0594 181.925 21.381 182.171 21.7915C182.421 22.202 182.545 22.6696 182.545 23.1943C182.545 24.0661 182.256 24.7516 181.676 25.251C181.1 25.7503 180.201 26 178.978 26H176.128ZM177.651 24.7305H178.883C179.564 24.7305 180.087 24.6099 180.451 24.3687C180.815 24.1232 180.997 23.7318 180.997 23.1943C180.997 22.8177 180.908 22.5257 180.73 22.3184C180.552 22.1068 180.294 21.9587 179.956 21.874C179.617 21.7894 179.204 21.7471 178.718 21.7471H177.651V24.7305ZM187.624 26H186.094V18.0146H183.377V16.7197H190.334V18.0146H187.624V26ZM197.507 26L196.599 23.4229H193.051L192.143 26H190.537L193.99 16.6816H195.679L199.125 26H197.507ZM196.206 22.1152L195.323 19.5762C195.289 19.4661 195.241 19.3117 195.177 19.1128C195.114 18.9097 195.05 18.7044 194.987 18.4971C194.923 18.2855 194.87 18.1077 194.828 17.9639C194.786 18.1374 194.733 18.332 194.669 18.5479C194.61 18.7594 194.551 18.9583 194.492 19.1445C194.437 19.3307 194.394 19.4746 194.365 19.5762L193.476 22.1152H196.206ZM208.729 24.7432V28.5645H207.263V26H200.351V16.7197H201.874V24.6987H205.968V16.7197H207.479V24.7432H208.729ZM210.234 16.7197H211.624V21.6392C211.624 21.8507 211.622 22.0835 211.618 22.3374C211.613 22.5913 211.605 22.8389 211.592 23.0801C211.584 23.3213 211.575 23.5371 211.567 23.7275C211.558 23.9137 211.55 24.0492 211.542 24.1338H211.586L216.309 16.7197H218.08V26H216.702V21.1187C216.702 20.8901 216.706 20.6426 216.715 20.376C216.723 20.1094 216.734 19.8512 216.747 19.6016C216.759 19.3519 216.772 19.1318 216.785 18.9414C216.797 18.751 216.806 18.6156 216.81 18.5352H216.753L212.018 26H210.234V16.7197ZM223.437 22.2803L221.146 26H219.419L222.041 21.9185C221.744 21.8127 221.459 21.6603 221.184 21.4614C220.913 21.2625 220.691 20.9917 220.517 20.6489C220.348 20.3019 220.263 19.8682 220.263 19.3477C220.263 18.4928 220.559 17.8411 221.152 17.3926C221.749 16.944 222.61 16.7197 223.735 16.7197H226.522V26H224.999V22.2803H223.437ZM224.999 17.9829H223.799C223.371 17.9829 223.01 18.0337 222.713 18.1353C222.417 18.2326 222.193 18.3892 222.041 18.605C221.888 18.8166 221.812 19.0959 221.812 19.4429C221.812 19.9422 221.977 20.3294 222.307 20.6045C222.637 20.8796 223.141 21.0171 223.818 21.0171H224.999V17.9829Z" fill="white"/>
</svg>
