<svg width="106" height="27" viewBox="0 0 106 27" fill="none" xmlns="http://www.w3.org/2000/svg">
<path d="M5.704 11.744L6.024 13.2H6.12L6.376 11.696L8.056 6.8H10.312L7.336 14.544C7.10133 15.152 6.872 15.68 6.648 16.128C6.43467 16.576 6.2 16.9493 5.944 17.248C5.69867 17.536 5.42133 17.7547 5.112 17.904C4.80267 18.0427 4.44 18.112 4.024 18.112C3.672 18.112 3.384 18.0853 3.16 18.032C2.94667 17.9893 2.712 17.888 2.456 17.728L3.016 15.952C3.19733 16.048 3.36267 16.1067 3.512 16.128C3.66133 16.1493 3.82133 16.16 3.992 16.16C4.49333 16.16 4.84533 15.7653 5.048 14.976L0.856 6.8H3.432L5.704 11.744ZM11.1346 14.688V13.232H12.1106C12.484 13.232 12.788 13.1573 13.0226 13.008C13.268 12.8587 13.3906 12.6613 13.3906 12.416C13.3906 12.128 13.284 11.9253 13.0706 11.808C12.8573 11.68 12.532 11.616 12.0946 11.616C11.6786 11.616 11.3106 11.6693 10.9906 11.776C10.6706 11.8827 10.4146 11.9947 10.2226 12.112L9.77463 10.528C10.0946 10.3467 10.516 10.192 11.0386 10.064C11.572 9.92533 12.1373 9.856 12.7346 9.856C13.652 9.856 14.3346 10.0267 14.7826 10.368C15.2413 10.7093 15.4706 11.2053 15.4706 11.856C15.4706 12.0373 15.444 12.224 15.3906 12.416C15.348 12.5973 15.2733 12.7733 15.1666 12.944C15.06 13.1147 14.9266 13.2693 14.7666 13.408C14.6173 13.536 14.436 13.6373 14.2226 13.712V13.776C14.788 13.904 15.188 14.1333 15.4226 14.464C15.6573 14.784 15.7746 15.216 15.7746 15.76C15.7746 16.1013 15.7053 16.4213 15.5666 16.72C15.428 17.008 15.2146 17.2587 14.9266 17.472C14.6493 17.6853 14.2973 17.856 13.8706 17.984C13.444 18.112 12.9373 18.176 12.3506 18.176C11.764 18.176 11.252 18.1173 10.8146 18C10.388 17.872 10.0306 17.728 9.74263 17.568L10.1906 15.952C10.436 16.0907 10.7293 16.2027 11.0706 16.288C11.4226 16.3733 11.812 16.416 12.2386 16.416C13.2093 16.416 13.6946 16.1067 13.6946 15.488C13.6946 15.2107 13.5666 15.008 13.3106 14.88C13.0653 14.752 12.6013 14.688 11.9186 14.688H11.1346ZM21.8969 14.848H19.2889V18H17.2089V10H19.2889V13.008H21.8969V10H23.9769V18H21.8969V14.848ZM25.7546 10.464C26.1813 10.272 26.688 10.1227 27.2746 10.016C27.8613 9.89867 28.4746 9.84 29.1146 9.84C29.6693 9.84 30.1333 9.90933 30.5066 10.048C30.88 10.176 31.1733 10.3627 31.3866 10.608C31.6106 10.8533 31.7653 11.1467 31.8506 11.488C31.9466 11.8293 31.9946 12.2133 31.9946 12.64C31.9946 13.1093 31.9786 13.584 31.9466 14.064C31.9146 14.5333 31.8933 14.9973 31.8826 15.456C31.8826 15.9147 31.8986 16.3627 31.9306 16.8C31.9626 17.2267 32.0426 17.632 32.1706 18.016H30.4746L30.1386 16.912H30.0586C29.8453 17.2427 29.5466 17.5307 29.1626 17.776C28.7893 18.0107 28.304 18.128 27.7066 18.128C27.3333 18.128 26.9973 18.0747 26.6986 17.968C26.4 17.8507 26.144 17.6907 25.9306 17.488C25.7173 17.2747 25.552 17.0293 25.4346 16.752C25.3173 16.464 25.2586 16.144 25.2586 15.792C25.2586 15.3013 25.3653 14.8907 25.5786 14.56C25.8026 14.2187 26.1173 13.9467 26.5226 13.744C26.9386 13.5307 27.4293 13.3867 27.9946 13.312C28.5706 13.2267 29.2106 13.2 29.9146 13.232C29.9893 12.6347 29.9466 12.208 29.7866 11.952C29.6266 11.6853 29.2693 11.552 28.7146 11.552C28.2986 11.552 27.856 11.5947 27.3866 11.68C26.928 11.7653 26.5493 11.8773 26.2506 12.016L25.7546 10.464ZM28.3946 16.416C28.8106 16.416 29.1413 16.3253 29.3866 16.144C29.632 15.952 29.8133 15.7493 29.9306 15.536V14.496C29.6 14.464 29.28 14.4587 28.9706 14.48C28.672 14.5013 28.4053 14.5493 28.1706 14.624C27.936 14.6987 27.7493 14.8053 27.6106 14.944C27.472 15.0827 27.4026 15.2587 27.4026 15.472C27.4026 15.7707 27.488 16.0053 27.6586 16.176C27.84 16.336 28.0853 16.416 28.3946 16.416ZM39.5001 11.84H37.2441V18H35.1001V11.84H32.8441V10H39.5001V11.84ZM42.5076 16.256C42.8276 16.32 43.1316 16.352 43.4196 16.352C43.9316 16.352 44.2996 16.2667 44.5236 16.096C44.7583 15.9147 44.8756 15.6373 44.8756 15.264C44.8756 14.5707 44.4063 14.224 43.4676 14.224C43.1156 14.224 42.7956 14.2613 42.5076 14.336V16.256ZM42.5076 12.848C42.7636 12.8053 43.0196 12.7787 43.2756 12.768C43.5423 12.7467 43.7823 12.736 43.9956 12.736C44.5503 12.736 45.0196 12.8 45.4036 12.928C45.7876 13.0453 46.097 13.216 46.3316 13.44C46.577 13.664 46.753 13.9307 46.8596 14.24C46.9663 14.5387 47.0196 14.864 47.0196 15.216C47.0196 16.1867 46.7316 16.912 46.1556 17.392C45.5796 17.872 44.6036 18.112 43.2276 18.112C42.6196 18.112 42.0916 18.1013 41.6436 18.08C41.2063 18.0587 40.801 18.032 40.4276 18V10H42.5076V12.848ZM53.2095 11.504C53.5188 11.0347 53.8815 10.6987 54.2975 10.496C54.7242 10.2827 55.2362 10.176 55.8335 10.176C56.8042 10.176 57.5722 10.4747 58.1375 11.072C58.7135 11.6587 59.0015 12.576 59.0015 13.824C59.0015 15.264 58.6762 16.3573 58.0255 17.104C57.3748 17.8507 56.4575 18.224 55.2735 18.224C54.0362 18.224 53.0922 17.8133 52.4415 16.992C51.7908 16.1707 51.4655 14.8907 51.4655 13.152C51.4655 12.2347 51.5188 11.4507 51.6255 10.8C51.7322 10.1493 51.8815 9.6 52.0735 9.152C52.2762 8.704 52.5108 8.34667 52.7775 8.08C53.0548 7.81333 53.3588 7.60533 53.6895 7.456C54.0308 7.296 54.3935 7.184 54.7775 7.12C55.1615 7.056 55.5668 7.00267 55.9935 6.96C56.5482 6.90667 57.0228 6.84267 57.4175 6.768C57.8122 6.68267 58.1055 6.54933 58.2975 6.368L58.3775 8.224C58.1642 8.40533 57.8602 8.53333 57.4655 8.608C57.0708 8.672 56.5375 8.73067 55.8655 8.784C55.4602 8.80533 55.1028 8.85333 54.7935 8.928C54.4842 9.00267 54.2175 9.136 53.9935 9.328C53.7695 9.52 53.5882 9.792 53.4495 10.144C53.3215 10.4853 53.2255 10.9387 53.1615 11.504H53.2095ZM53.6095 14.096C53.6095 14.7787 53.7428 15.344 54.0095 15.792C54.2762 16.24 54.6868 16.464 55.2415 16.464C55.8175 16.464 56.2282 16.2613 56.4735 15.856C56.7295 15.4507 56.8575 14.864 56.8575 14.096C56.8575 13.4027 56.7402 12.8693 56.5055 12.496C56.2708 12.1227 55.8815 11.936 55.3375 11.936C54.7508 11.936 54.3135 12.128 54.0255 12.512C53.7482 12.896 53.6095 13.424 53.6095 14.096ZM60.0592 14C60.0592 12.6453 60.3899 11.6053 61.0513 10.88C61.7126 10.144 62.6406 9.776 63.8353 9.776C64.4753 9.776 65.0299 9.87733 65.4993 10.08C65.9686 10.2827 66.3579 10.5707 66.6673 10.944C66.9766 11.3067 67.2059 11.7493 67.3553 12.272C67.5153 12.7947 67.5953 13.3707 67.5953 14C67.5953 15.3547 67.2646 16.4 66.6033 17.136C65.9526 17.8613 65.0299 18.224 63.8353 18.224C63.1953 18.224 62.6406 18.1227 62.1713 17.92C61.7019 17.7173 61.3073 17.4347 60.9873 17.072C60.6779 16.6987 60.4433 16.2507 60.2833 15.728C60.1339 15.2053 60.0592 14.6293 60.0592 14ZM62.2033 14C62.2033 14.352 62.2353 14.6773 62.2993 14.976C62.3633 15.2747 62.4593 15.536 62.5873 15.76C62.7153 15.984 62.8806 16.16 63.0833 16.288C63.2966 16.4053 63.5473 16.464 63.8353 16.464C64.3793 16.464 64.7846 16.2667 65.0513 15.872C65.3179 15.4773 65.4513 14.8533 65.4513 14C65.4513 13.264 65.3286 12.672 65.0833 12.224C64.8379 11.7653 64.4219 11.536 63.8353 11.536C63.3233 11.536 62.9233 11.728 62.6353 12.112C62.3473 12.496 62.2033 13.1253 62.2033 14ZM73.389 11.84H71.805C71.741 12.5973 71.6663 13.3493 71.581 14.096C71.4957 14.8427 71.357 15.5147 71.165 16.112C70.9837 16.6987 70.733 17.1787 70.413 17.552C70.093 17.9147 69.677 18.096 69.165 18.096C68.5463 18.096 68.109 18.016 67.853 17.856L68.109 16.128C68.2797 16.192 68.4397 16.224 68.589 16.224C68.8023 16.224 68.989 16.1333 69.149 15.952C69.309 15.7707 69.4423 15.4453 69.549 14.976C69.6663 14.5067 69.757 13.872 69.821 13.072C69.8957 12.2613 69.949 11.2373 69.981 10H75.469V18H73.389V11.84ZM79.3514 16.256C79.6714 16.32 79.9754 16.352 80.2634 16.352C80.7754 16.352 81.1434 16.2667 81.3674 16.096C81.602 15.9147 81.7194 15.6373 81.7194 15.264C81.7194 14.5707 81.25 14.224 80.3114 14.224C79.9594 14.224 79.6394 14.2613 79.3514 14.336V16.256ZM79.3514 12.848C79.6074 12.8053 79.8634 12.7787 80.1194 12.768C80.386 12.7467 80.626 12.736 80.8394 12.736C81.394 12.736 81.8634 12.8 82.2474 12.928C82.6314 13.0453 82.9407 13.216 83.1754 13.44C83.4207 13.664 83.5967 13.9307 83.7034 14.24C83.81 14.5387 83.8634 14.864 83.8634 15.216C83.8634 16.1867 83.5754 16.912 82.9994 17.392C82.4234 17.872 81.4474 18.112 80.0714 18.112C79.4634 18.112 78.9354 18.1013 78.4874 18.08C78.05 18.0587 77.6447 18.032 77.2714 18V10H79.3514V12.848ZM85.1151 18V10H87.1951V16.16H89.1951V10H91.2751V16.16H93.2751V10H95.3551V18H85.1151ZM103.578 17.312C103.258 17.568 102.82 17.7867 102.266 17.968C101.722 18.1387 101.14 18.224 100.522 18.224C99.231 18.224 98.287 17.8507 97.6896 17.104C97.0923 16.3467 96.7936 15.312 96.7936 14C96.7936 12.592 97.1296 11.536 97.8016 10.832C98.4736 10.128 99.4176 9.776 100.634 9.776C101.039 9.776 101.434 9.82933 101.818 9.936C102.202 10.0427 102.543 10.2187 102.842 10.464C103.14 10.7093 103.38 11.04 103.562 11.456C103.743 11.872 103.834 12.3893 103.834 13.008C103.834 13.232 103.818 13.472 103.786 13.728C103.764 13.984 103.727 14.2507 103.674 14.528H98.8736C98.9056 15.2 99.0763 15.7067 99.3856 16.048C99.7056 16.3893 100.218 16.56 100.922 16.56C101.359 16.56 101.748 16.496 102.09 16.368C102.442 16.2293 102.708 16.0907 102.89 15.952L103.578 17.312ZM100.602 11.44C100.058 11.44 99.6523 11.6053 99.3856 11.936C99.1296 12.256 98.975 12.688 98.9216 13.232H101.898C101.94 12.656 101.85 12.2133 101.626 11.904C101.412 11.5947 101.071 11.44 100.602 11.44Z" fill="#363738"/>
<line x1="1" y1="25.5" x2="105" y2="25.5" stroke="#FFCE50" stroke-width="3"/>
</svg>
